<?xml version="1.0" encoding="UTF-8"?>
<svg width="512" height="512" version="1.1" viewBox="0 0 512.00001 512.00001" xmlns="http://www.w3.org/2000/svg">
 <defs>
  <linearGradient id="c" x1="-163.06" x2="-192.62" y1="973.87" y2="870.6" gradientUnits="userSpaceOnUse">
   <stop stop-color="#e33a4b" offset="0"/>
   <stop stop-color="#d22436" stop-opacity=".54902" offset="1"/>
  </linearGradient>
  <linearGradient id="d" x1="284.75" x2="119.19" y1="974.63" y2="810.63" gradientUnits="userSpaceOnUse">
   <stop stop-color="#6f0102" offset="0"/>
   <stop stop-color="#6f0102" stop-opacity="0" offset="1"/>
  </linearGradient>
 </defs>
 <g transform="translate(0 -540.36)">
  <rect y="540.36" width="512" height="512" fill="#212121"/>
  <path d="m258 896.36a242 190 0 0 0 -234.49 144h469.05a242 190 0 0 0 -234.56 -144z" fill="#fff"/>
  <path d="m110.78 827.51c24.815 131.56 99.003 206.72 234.52 186.09-41.298-75.189-0.79079-112.11 25.704-160.93l-76.435-117.22c-41.755 45.671-72.444 93.709-183.79 92.056z" fill="#212121"/>
  <path d="m118.78 826.09c27.365 121.03 87.203 195.84 212.36 177.7-38.759-70.566 7.0006-108.26 31.866-154.09l-71.735-110.01c-39.188 42.863-67.99 87.947-172.49 86.396z" fill="#ffb928"/>
  <ellipse cx="317" cy="678.09" rx="76" ry="109" fill="#fff"/>
  <path d="m135.75 833.16c33.944 116.09 68.819 171.09 179.83 163.56-38.759-70.566 11.243-109.68 36.109-155.5l-59.007-90.214c-39.188 42.863-52.434 83.705-156.94 82.153z" fill="#212121"/>
  <path d="m143.75 834.66c36.337 113.3 58.175 158.34 163.83 157.06-38.759-70.566 12.743-107.18 37.609-153l-58.507-93.214c-39.188 42.863-38.434 90.705-142.94 89.153z" fill="url(#d)"/>
  <circle cx="320.15" cy="678.92" r="39.598" fill="#212121"/>
  <ellipse cx="193.14" cy="717.69" rx="103.06" ry="119.04" fill="#212121"/>
  <ellipse cx="183.14" cy="719.69" rx="103.06" ry="119.04" fill="#fff"/>
  <path d="m88.984 820.59c130.92 81.547 262.63 83.232 392.9 64.739l-190.95-160.64c-45.539 49.809-80.509 97.701-201.95 95.898z" fill="#212121"/>
  <path d="m118.78 826.09c110.65 64.157 223.52 64.168 336.81 51.838l-164.32-138.23c-39.188 42.863-67.99 87.947-172.49 86.396z" fill="#ffb928"/>
  <path transform="matrix(.89327 -.44951 .39773 .9175 0 0)" d="m-132.06 935.08c7.5692 37.968-9.3562 51.044-26.943 51.044-17.587 1e-5 -35.356-27.15-36.744-51.044-2.6139-45.008-13.374-57.821-3.0922-72.844 9.6787-14.141 59.21 34.876 66.779 72.844z" fill="url(#c)"/>
  <path d="m225.31 927.2c9.9747 13.581 15.608 16.862 8.6089 21.114-6.9994 4.2524-5.8132-7.9795-17.062-20.063-11.249-12.084-57.426-42.507-51.887-50.949 5.5389-8.442 50.366 36.317 60.34 49.898z" fill="#750a16" fill-opacity=".54902"/>
  <circle cx="188.97" cy="704.55" r="39.598" fill="#212121"/>
 </g>
</svg>
